<svg viewBox="943.21 773.81 1289.29847001224 578.025" fill='white' xml:space="preserve" version="1.1" xmlns:xlink="http://www.w3.org/1999/xlink" xmlns="http://www.w3.org/2000/svg" width="128.92" height="57.8">
    <g transform="matrix(0.982808,0.18463,-0.18463,0.982808,124.207,-755.965)">
        <path d="M1252.24,1723.18C1252.53,1722.22 1253.09,1720.23 1253.21,1718.58C1253.39,1716.22 1253.34,1713.52 1253.11,1710.5C1251.22,1684.96 1237.49,1640.17 1226.02,1598.22C1225.07,1594.75 1226.56,1591.06 1229.66,1589.23C1232.76,1587.39 1236.71,1587.86 1239.3,1590.36C1306.54,1655.36 1346.02,1674.79 1369.33,1675.4C1386.74,1675.85 1392.23,1663.65 1392.48,1658.52C1393.84,1631.39 1373.65,1610.09 1348.72,1593.26C1308.23,1565.92 1254.31,1550.78 1242.94,1546.32C1238.83,1544.71 1236.8,1540.07 1238.41,1535.95C1240.02,1531.84 1244.66,1529.81 1248.78,1531.43C1260.49,1536.02 1315.95,1551.83 1357.67,1580C1387.56,1600.18 1410.09,1626.8 1408.46,1659.32C1408.01,1668.43 1399.85,1692.2 1368.91,1691.39C1346.4,1690.8 1308.91,1675.29 1249.05,1621.37C1254.89,1642.31 1260.53,1662.8 1264.35,1680.24C1268.23,1698 1270.14,1712.8 1268.93,1722.16C1267.9,1730.07 1264.53,1735.08 1260.12,1737.5C1255.84,1739.85 1249.62,1740.33 1241.32,1736.18C1229.65,1730.34 1217.41,1715.96 1206.36,1697.41C1182.15,1656.79 1162.45,1596.33 1160.12,1575.29C1159.63,1570.9 1162.8,1566.94 1167.18,1566.46C1171.57,1565.97 1175.53,1569.13 1176.02,1573.52C1178.24,1593.47 1197.15,1650.71 1220.1,1689.22C1229.26,1704.59 1238.8,1717.03 1248.47,1721.87C1249.77,1722.52 1251.38,1722.97 1252.24,1723.18Z"/>
    </g>
    <g transform="matrix(0.982808,0.18463,-0.18463,0.982808,124.207,-755.965)">
        <path d="M1435.09,1632.16C1442.48,1626.28 1453.02,1620.22 1468.19,1613.24C1528.2,1585.6 1543.5,1581.42 1583.86,1571.93C1572.45,1571.41 1568.12,1571.65 1565.16,1571.83C1560.76,1572.09 1556.97,1568.72 1556.71,1564.31C1556.45,1559.9 1559.82,1556.12 1564.22,1555.86C1570,1555.52 1580.82,1554.84 1636.46,1559.72C1640.35,1560.06 1643.43,1563.16 1643.73,1567.06C1644.04,1570.95 1641.49,1574.5 1637.7,1575.45C1554.07,1596.35 1553.12,1591.74 1474.88,1627.77C1455.28,1636.8 1444.4,1643.41 1438.59,1651.06C1437.02,1653.12 1435.89,1655.25 1435.06,1657.52C1434.54,1678.95 1432.94,1695.04 1432.44,1700.05C1432.01,1704.33 1428.28,1707.51 1423.98,1707.24C1419.69,1706.97 1416.38,1703.35 1416.48,1699.05C1416.82,1685.72 1416.39,1675.44 1417.06,1666.92C1417.41,1662.49 1418.05,1658.48 1419.14,1654.73C1419.57,1633.09 1418.81,1606.27 1414.58,1580.21C1409.13,1546.72 1398.22,1514.3 1375.51,1497.26C1371.97,1494.61 1371.26,1489.59 1373.9,1486.06C1376.56,1482.52 1381.57,1481.81 1385.11,1484.46C1410.77,1503.71 1424.22,1539.8 1430.37,1577.64C1433.37,1596.1 1434.69,1614.93 1435.09,1632.16Z"/>
    </g>
    <g transform="matrix(0.982808,0.18463,-0.18463,0.982808,124.207,-755.965)">
        <path d="M1580.72,1384.91C1579.97,1380.69 1579.71,1377.41 1579.93,1374.97C1580.03,1373.96 1580.19,1373.04 1580.4,1372.2L1581.45,1369.33L1582.6,1367.45L1584.14,1365.73L1587.73,1363.47L1590.52,1362.68C1591.34,1362.55 1592.21,1362.47 1593.15,1362.46C1596.16,1362.45 1600.26,1363.32 1605.48,1365.16C1617.34,1369.34 1620.17,1372.92 1633.75,1379.23C1682.35,1401.8 1741.89,1409.1 1766.17,1420.19C1775.46,1424.43 1780.44,1429.94 1781.62,1435.4C1782.57,1439.8 1781.66,1444.86 1777.22,1450.34C1767.45,1462.42 1748.51,1476.99 1731.4,1495.61C1715.56,1512.84 1701.2,1533.71 1699.02,1559.94C1698.65,1564.34 1694.78,1567.61 1690.38,1567.25C1685.98,1566.88 1682.7,1563.01 1683.07,1558.61C1685.57,1528.61 1701.5,1504.48 1719.62,1484.78C1736.46,1466.45 1755.16,1452.16 1764.79,1440.27C1765.15,1439.82 1765.53,1439.17 1765.76,1438.75C1764.87,1438.05 1762.11,1435.92 1759.53,1434.74C1735.23,1423.64 1675.65,1416.32 1627.02,1393.74C1614.08,1387.74 1611.44,1384.23 1600.15,1380.24C1598.87,1379.79 1597.47,1379.41 1596.27,1379.12C1596.78,1382.63 1597.82,1388.87 1599.54,1395.03C1600.76,1399.39 1602.24,1404.36 1603.96,1409.99C1630.49,1463.24 1641.43,1532.5 1644.14,1549.1C1644.22,1549.43 1644.31,1549.77 1644.4,1550.11C1644.5,1550.5 1644.57,1550.91 1644.61,1551.31L1644.78,1552.96C1645.2,1557.22 1642.21,1561.05 1637.98,1561.67C1633.76,1562.3 1629.79,1559.49 1628.97,1555.29C1628.86,1554.76 1628.71,1553.83 1628.5,1552.55C1611.52,1487.01 1597.48,1443.5 1588.98,1415.72C1585.52,1408.95 1581.79,1402.47 1577.77,1396.44C1575.33,1392.76 1576.32,1387.79 1579.99,1385.34C1580.23,1385.19 1580.47,1385.04 1580.72,1384.91Z"/>
    </g>
    <g transform="matrix(0.982808,0.18463,-0.18463,0.982808,124.207,-755.965)">
        <path d="M1793.04,1382.59C1787.29,1364.34 1786.96,1356.96 1787.13,1342.24C1787.19,1337.83 1790.82,1334.28 1795.23,1334.34C1799.65,1334.39 1803.19,1338.02 1803.13,1342.43C1802.96,1356.49 1803.45,1363.54 1809.03,1380.77C1814.52,1381.84 1821.98,1384.86 1830.89,1389.49C1853.56,1401.27 1887.86,1423.34 1925.25,1439.4C1975.69,1461.08 2032.19,1472.5 2070.93,1426.38C2078.39,1417.49 2079.74,1405.99 2076.44,1393.7C2072.71,1379.81 2063.26,1365.05 2049.31,1351.2C2005.52,1307.69 1918.09,1273.91 1814.6,1304.1C1810.36,1305.33 1805.92,1302.89 1804.68,1298.66C1803.45,1294.42 1805.88,1289.97 1810.12,1288.74C1939.37,1251.04 2044.86,1307.96 2080.47,1364.28C2097.4,1391.07 2098.91,1417.95 2083.18,1436.67C2039.43,1488.76 1975.89,1478.58 1918.93,1454.1C1881.13,1437.86 1846.43,1415.59 1823.51,1403.68C1820.64,1402.19 1818.02,1400.85 1815.64,1399.73C1822.12,1417.56 1831.88,1443.22 1846.52,1482.98C1847.78,1486.4 1846.57,1490.24 1843.58,1492.32C1840.59,1494.39 1836.58,1494.19 1833.81,1491.82C1799.97,1462.82 1781.61,1430.93 1779.48,1410.35C1778.56,1401.46 1780.47,1394.24 1784.48,1389.14C1786.66,1386.38 1789.49,1384.12 1793.04,1382.59ZM1798.21,1397.94C1797.77,1398.25 1797.39,1398.62 1797.05,1399.05C1795.25,1401.34 1794.98,1404.71 1795.4,1408.71C1796.64,1420.77 1804.69,1436.93 1818.73,1453.93C1809.45,1428.9 1802.87,1411.2 1798.21,1397.94Z"/>
    </g>
    <g transform="matrix(0.982808,0.18463,-0.18463,0.982808,124.207,-755.965)">
        <path d="M1930.21,1216.89C1987.56,1243.53 1990.69,1254.93 2058.17,1295.05C2061.97,1297.31 2063.22,1302.22 2060.96,1306.02C2058.7,1309.81 2053.79,1311.06 2049.99,1308.81C1975.16,1264.31 1980.49,1255.46 1900.2,1221.05C1897.3,1219.81 1895.62,1218.53 1894.71,1217.59L1893.12,1215.41L1892.27,1213.1L1892.28,1209.46L1893.63,1206.37L1895.97,1204.04L1899.92,1202.3C1906.56,1200.5 1926.76,1201.15 1928.29,1201.22C1932.7,1201.4 1936.13,1205.13 1935.95,1209.55C1935.8,1213.06 1933.4,1215.95 1930.21,1216.89Z"/>
    </g>
    <g transform="matrix(0.982808,0.18463,-0.18463,0.982808,124.207,-755.965)">
        <path d="M1240.68,1898.39C1240.66,1898.07 1240.62,1897.55 1240.6,1897.14C1240.29,1891.73 1239.99,1879.86 1260.69,1858.75C1287.4,1831.51 1353.02,1785.35 1513.95,1710.11C1730.29,1608.96 2164.73,1444.71 2389.25,1436.39C2393.66,1436.23 2397.38,1439.68 2397.54,1444.09C2397.7,1448.51 2394.26,1452.22 2389.84,1452.38C2166.88,1460.64 1735.57,1624.16 1520.73,1724.6C1397.6,1782.17 1331.09,1822.24 1295.26,1849.85C1272.75,1867.18 1262.88,1879.08 1258.79,1887.28C1256.11,1892.66 1256.56,1895.86 1256.66,1897.53L1256.27,1901.74C1254.97,1905.96 1250.5,1908.34 1246.28,1907.05C1242.5,1905.89 1240.2,1902.18 1240.68,1898.39Z"/>
    </g>
    <g transform="matrix(1,0,0,1,-783.859,-670.321)">
        <path d="M1954.93,1696.06C1958.65,1697.49 1960.81,1701.51 1959.82,1705.47C1958.75,1709.75 1954.4,1712.36 1950.12,1711.29L1946.82,1709.92C1945.67,1709.25 1944.48,1708.32 1943.3,1707.1C1940.44,1704.16 1937.26,1698.85 1934.13,1691.94C1925.31,1672.43 1915.58,1638.63 1907.47,1619.78C1906.51,1617.56 1905.23,1615.17 1904.18,1613.31C1902.41,1613.73 1900.49,1613.56 1898.75,1612.68C1894.8,1610.71 1893.19,1605.9 1895.17,1601.95L1897.14,1598.89L1899.2,1596.94L1901.62,1595.61L1904.51,1594.96L1907.9,1595.28L1911.63,1597.06C1913.24,1598.21 1915.06,1600.13 1916.83,1602.91C1925.35,1616.28 1936.83,1657.29 1947.17,1681.8C1949.82,1688.1 1954.31,1695.1 1954.93,1696.06Z"/>
    </g>
    <g transform="matrix(1,0,0,1,-783.859,-670.321)">
        <path d="M2929.31,1743.95C2925.56,1741.62 2924.42,1736.68 2926.76,1732.93C2929.1,1729.19 2934.04,1728.05 2937.79,1730.39C2971.55,1751.49 2970.42,1751.25 3007.93,1764.75C3012.09,1766.25 3014.24,1770.83 3012.75,1774.99C3011.25,1779.14 3006.67,1781.3 3002.51,1779.8C2963.37,1765.71 2964.54,1765.98 2929.31,1743.95Z"/>
    </g>
</svg>