<svg width="163" height="23" viewBox="0 0 163 23" fill="none" xmlns="http://www.w3.org/2000/svg">
<path d="M0.53957 22C0.31957 22 0.23957 21.89 0.29957 21.67L6.92957 1.24C6.98957 1.08 7.10957 0.999999 7.28957 0.999999H8.78957C9.00957 0.999999 9.08957 1.11 9.02957 1.33L2.39957 21.76C2.33957 21.92 2.21957 22 2.03957 22H0.53957ZM18.2513 22C18.0913 22 17.9813 21.92 17.9213 21.76L12.1613 1.33L12.1313 1.24C12.1313 1.08 12.2313 0.999999 12.4313 0.999999H14.0213C14.2013 0.999999 14.3113 1.08 14.3513 1.24L18.9113 17.68C18.9313 17.72 18.9513 17.74 18.9713 17.74C19.0113 17.74 19.0413 17.72 19.0613 17.68L23.2913 1.27C23.3313 1.09 23.4413 0.999999 23.6213 0.999999H25.2413C25.4213 0.999999 25.5313 1.09 25.5713 1.27L29.9813 17.68C30.0013 17.72 30.0213 17.74 30.0413 17.74C30.0813 17.74 30.1113 17.72 30.1313 17.68L34.6913 1.24C34.7313 1.08 34.8413 0.999999 35.0213 0.999999H36.5513C36.6513 0.999999 36.7213 1.03 36.7613 1.09C36.8213 1.15 36.8413 1.23 36.8213 1.33L31.1513 21.76C31.1113 21.92 31.0013 22 30.8213 22H29.2313C29.0513 22 28.9413 21.91 28.9013 21.73L24.5213 4.93C24.5013 4.89 24.4713 4.87 24.4313 4.87C24.4113 4.87 24.3913 4.89 24.3713 4.93L20.0813 21.73C20.0613 21.91 19.9513 22 19.7513 22H18.2513ZM53.659 2.56C53.659 2.76 53.559 2.86 53.359 2.86H42.319C42.239 2.86 42.199 2.9 42.199 2.98V10.39C42.199 10.47 42.239 10.51 42.319 10.51H50.059C50.259 10.51 50.359 10.61 50.359 10.81V12.07C50.359 12.27 50.259 12.37 50.059 12.37H42.319C42.239 12.37 42.199 12.41 42.199 12.49V20.02C42.199 20.1 42.239 20.14 42.319 20.14H53.359C53.559 20.14 53.659 20.24 53.659 20.44V21.7C53.659 21.9 53.559 22 53.359 22H40.369C40.169 22 40.069 21.9 40.069 21.7V1.3C40.069 1.1 40.169 0.999999 40.369 0.999999H53.359C53.559 0.999999 53.659 1.1 53.659 1.3V2.56ZM58.5331 22C58.3331 22 58.2331 21.9 58.2331 21.7V1.3C58.2331 1.1 58.3331 0.999999 58.5331 0.999999H60.0631C60.2631 0.999999 60.3631 1.1 60.3631 1.3V20.02C60.3631 20.1 60.4031 20.14 60.4831 20.14H71.0731C71.2731 20.14 71.3731 20.24 71.3731 20.44V21.7C71.3731 21.9 71.2731 22 71.0731 22H58.5331ZM75.5839 22C75.3839 22 75.2839 21.9 75.2839 21.7V1.3C75.2839 1.1 75.3839 0.999999 75.5839 0.999999H77.1139C77.3139 0.999999 77.4139 1.1 77.4139 1.3V20.02C77.4139 20.1 77.4539 20.14 77.5339 20.14H88.1239C88.3239 20.14 88.4239 20.24 88.4239 20.44V21.7C88.4239 21.9 88.3239 22 88.1239 22H75.5839ZM92.6346 22C92.4346 22 92.3346 21.9 92.3346 21.7V1.3C92.3346 1.1 92.4346 0.999999 92.6346 0.999999H99.7146C101.695 0.999999 103.265 1.52 104.425 2.56C105.605 3.6 106.195 5.01 106.195 6.79V16.21C106.195 17.99 105.605 19.4 104.425 20.44C103.265 21.48 101.695 22 99.7146 22H92.6346ZM94.4646 20.02C94.4646 20.1 94.5046 20.14 94.5846 20.14H99.8046C101.105 20.14 102.135 19.76 102.895 19C103.675 18.24 104.065 17.22 104.065 15.94V7.09C104.065 5.79 103.685 4.76 102.925 4C102.165 3.24 101.125 2.86 99.8046 2.86H94.5846C94.5046 2.86 94.4646 2.9 94.4646 2.98V20.02ZM117.301 22.24C115.881 22.24 114.631 21.95 113.551 21.37C112.471 20.79 111.631 19.98 111.031 18.94C110.451 17.88 110.161 16.66 110.161 15.28V7.72C110.161 6.34 110.451 5.13 111.031 4.09C111.631 3.03 112.471 2.21 113.551 1.63C114.631 1.05 115.881 0.76 117.301 0.76C118.721 0.76 119.971 1.05 121.051 1.63C122.151 2.21 122.991 3.03 123.571 4.09C124.171 5.13 124.471 6.34 124.471 7.72V15.28C124.471 16.66 124.171 17.88 123.571 18.94C122.991 19.98 122.151 20.79 121.051 21.37C119.971 21.95 118.721 22.24 117.301 22.24ZM117.301 20.41C118.821 20.41 120.041 19.95 120.961 19.03C121.881 18.11 122.341 16.89 122.341 15.37V7.69C122.341 6.17 121.881 4.95 120.961 4.03C120.041 3.09 118.821 2.62 117.301 2.62C115.801 2.62 114.591 3.09 113.671 4.03C112.751 4.95 112.291 6.17 112.291 7.69V15.37C112.291 16.89 112.751 18.11 113.671 19.03C114.591 19.95 115.801 20.41 117.301 20.41ZM141.993 1.3C141.993 1.1 142.093 0.999999 142.293 0.999999H143.823C144.023 0.999999 144.123 1.1 144.123 1.3V21.7C144.123 21.9 144.023 22 143.823 22H142.323C142.183 22 142.063 21.93 141.963 21.79L131.733 5.14C131.713 5.08 131.683 5.06 131.643 5.08C131.603 5.08 131.583 5.11 131.583 5.17L131.613 21.7C131.613 21.9 131.513 22 131.313 22H129.783C129.583 22 129.483 21.9 129.483 21.7V1.3C129.483 1.1 129.583 0.999999 129.783 0.999999H131.283C131.423 0.999999 131.543 1.07 131.643 1.21L141.873 17.86C141.893 17.92 141.923 17.95 141.963 17.95C142.003 17.93 142.023 17.89 142.023 17.83L141.993 1.3ZM162.936 2.56C162.936 2.76 162.836 2.86 162.636 2.86H151.596C151.516 2.86 151.476 2.9 151.476 2.98V10.39C151.476 10.47 151.516 10.51 151.596 10.51H159.336C159.536 10.51 159.636 10.61 159.636 10.81V12.07C159.636 12.27 159.536 12.37 159.336 12.37H151.596C151.516 12.37 151.476 12.41 151.476 12.49V20.02C151.476 20.1 151.516 20.14 151.596 20.14H162.636C162.836 20.14 162.936 20.24 162.936 20.44V21.7C162.936 21.9 162.836 22 162.636 22H149.646C149.446 22 149.346 21.9 149.346 21.7V1.3C149.346 1.1 149.446 0.999999 149.646 0.999999H162.636C162.836 0.999999 162.936 1.1 162.936 1.3V2.56Z" fill="white"/>
</svg>
