<?xml version="1.0" standalone="no"?>
<!DOCTYPE svg PUBLIC "-//W3C//DTD SVG 20010904//EN"
 "http://www.w3.org/TR/2001/REC-SVG-20010904/DTD/svg10.dtd">
<svg version="1.0" xmlns="http://www.w3.org/2000/svg"
 width="2103.000000pt" height="640.000000pt" viewBox="0 0 2103.000000 640.000000"
 preserveAspectRatio="xMidYMid meet">
<metadata>
Created by potrace 1.16, written by Peter Selinger 2001-2019
</metadata>
<g transform="translate(0.000000,640.000000) scale(0.100000,-0.100000)"
fill="#000000" stroke="none">
<path d="M4440 5841 c0 -5 -16 -12 -35 -15 -19 -4 -35 -12 -35 -18 0 -5 -7 -8
-15 -4 -8 3 -15 1 -15 -4 0 -4 -14 -11 -30 -15 -17 -4 -28 -10 -25 -15 3 -5
-5 -12 -17 -16 -13 -4 -26 -11 -29 -16 -3 -5 -16 -10 -27 -11 -12 -1 -22 -7
-22 -14 0 -7 -7 -13 -15 -13 -9 0 -18 -6 -21 -14 -3 -8 -18 -18 -34 -21 -16
-3 -31 -13 -34 -21 -3 -8 -12 -14 -21 -14 -8 0 -15 -4 -15 -9 0 -5 -10 -13
-22 -17 -13 -3 -31 -15 -41 -25 -10 -11 -27 -19 -37 -19 -11 0 -19 -3 -19 -7
4 -22 -3 -32 -16 -27 -8 4 -15 1 -15 -5 0 -6 -7 -11 -15 -11 -8 0 -15 -5 -15
-11 0 -6 -7 -8 -16 -5 -8 3 -12 2 -9 -4 3 -5 -6 -12 -20 -16 -14 -3 -25 -10
-25 -14 0 -5 -13 -11 -30 -15 -16 -4 -30 -11 -30 -16 0 -5 -18 -12 -40 -15
-22 -4 -40 -11 -40 -16 0 -6 -9 -8 -20 -5 -11 3 -23 1 -26 -4 -3 -5 -37 -9
-75 -9 -44 0 -68 -4 -64 -10 4 -6 -15 -10 -50 -10 -31 0 -54 4 -51 9 4 5 -3 7
-14 4 -11 -3 -20 -9 -20 -15 0 -5 -18 -8 -41 -6 -25 1 -43 -3 -48 -11 -6 -10
-20 -11 -51 -6 -30 5 -41 4 -36 -4 5 -7 -3 -11 -23 -11 -16 0 -33 -5 -37 -11
-3 -6 -19 -9 -35 -5 -16 3 -29 1 -29 -4 0 -6 -13 -10 -30 -10 -16 0 -30 -5
-30 -11 0 -7 -11 -9 -30 -6 -17 4 -30 2 -30 -3 0 -6 -11 -10 -24 -10 -14 0
-28 -5 -32 -11 -3 -6 -15 -9 -25 -6 -11 3 -19 1 -19 -4 0 -5 -11 -9 -25 -9
-14 0 -25 -5 -25 -11 0 -6 -9 -9 -20 -6 -11 3 -20 1 -20 -4 0 -5 -11 -9 -25
-9 -14 0 -25 -5 -25 -11 0 -6 -9 -8 -20 -4 -11 4 -20 2 -20 -4 0 -6 -7 -11
-15 -11 -8 0 -15 -5 -15 -11 0 -6 -9 -9 -20 -6 -11 3 -20 1 -20 -4 0 -5 -7 -9
-15 -9 -8 0 -15 -4 -15 -10 0 -5 -4 -10 -10 -10 -15 0 -163 -73 -178 -87 -7
-7 -20 -13 -28 -13 -8 0 -14 -5 -14 -11 0 -6 -7 -9 -15 -5 -8 3 -15 1 -15 -4
0 -5 -19 -22 -41 -36 -23 -14 -52 -37 -65 -51 -13 -14 -28 -22 -33 -18 -7 3
-8 0 -5 -10 5 -12 2 -14 -12 -8 -16 6 -17 4 -6 -9 15 -18 6 -48 -14 -48 -8 0
-14 -7 -14 -15 0 -8 5 -15 10 -15 7 0 10 -508 10 -1505 0 -876 -4 -1505 -9
-1505 -5 0 -11 -6 -14 -14 -4 -10 1 -12 16 -9 17 4 19 2 8 -5 -8 -6 -11 -17
-7 -28 4 -10 1 -21 -6 -26 -8 -5 -1 -6 17 -2 23 4 26 3 15 -5 -12 -9 -11 -11
8 -11 12 0 22 -4 22 -9 0 -5 11 -8 25 -6 14 1 25 -2 25 -6 0 -5 9 -9 20 -9 11
0 20 -4 20 -10 0 -5 14 -10 30 -10 17 0 30 -4 30 -9 0 -4 11 -6 25 -3 15 3 27
-1 30 -10 4 -9 18 -12 45 -10 23 2 40 0 40 -6 0 -6 35 -10 85 -10 47 0 85 4
85 9 0 5 9 9 20 9 11 0 34 13 52 29 25 22 29 31 20 42 -7 8 -28 34 -47 59 -20
25 -47 59 -61 75 -14 17 -43 53 -65 80 -22 28 -57 69 -77 91 -20 23 -49 57
-64 75 -15 19 -36 45 -47 58 -12 13 -21 30 -21 38 0 7 -5 13 -10 13 -6 0 -14
8 -17 18 -4 9 -13 23 -21 31 -7 8 -11 22 -9 32 3 10 -1 20 -8 23 -8 3 -11 15
-7 31 4 24 8 26 33 21 20 -4 28 -2 26 7 -3 18 64 22 74 4 5 -9 18 -13 34 -9
16 3 25 0 25 -8 0 -7 7 -10 15 -6 16 6 54 -11 67 -29 4 -5 8 -6 8 -2 0 5 13
-1 29 -12 16 -12 34 -21 40 -21 7 0 14 -7 17 -15 4 -8 12 -15 19 -15 6 0 20
-9 30 -20 10 -11 23 -20 30 -20 6 0 22 -13 35 -30 28 -33 40 -37 40 -15 0 8
-5 15 -11 15 -6 0 -9 5 -7 11 2 6 -11 27 -29 47 -18 20 -32 41 -30 46 2 6 -7
19 -20 29 -13 10 -23 24 -23 32 0 7 -7 15 -15 19 -8 3 -15 12 -15 20 0 8 -3
16 -7 18 -12 5 -53 66 -53 78 0 6 4 8 10 5 6 -4 7 1 3 11 -4 11 -8 13 -11 6
-2 -7 -7 -12 -11 -12 -9 0 -35 51 -33 63 1 4 -2 7 -7 7 -13 0 -103 181 -97
197 3 7 -1 13 -8 13 -14 0 -32 48 -22 57 3 3 -2 12 -10 20 -8 8 -12 19 -9 24
4 5 1 9 -6 9 -7 0 -9 10 -7 24 3 16 0 27 -10 31 -8 3 -11 12 -8 20 3 8 9 22
12 30 5 11 2 14 -11 8 -16 -5 -17 -2 -12 24 4 22 2 33 -8 37 -13 5 -13 17 -1
69 3 12 3 16 0 10 -3 -7 -10 -13 -16 -13 -7 0 -8 18 -4 52 5 35 3 53 -4 58
-15 9 -15 381 -1 389 5 4 9 29 8 56 -1 35 2 49 10 48 9 -2 10 4 3 22 -10 25
-4 55 10 55 4 0 5 11 3 24 -3 13 0 27 6 30 6 4 11 18 11 32 0 13 4 24 9 24 5
0 7 8 4 19 -3 10 0 22 6 25 5 4 8 13 5 20 -3 8 -1 17 5 21 6 3 11 15 11 26 0
10 5 19 11 19 5 0 8 4 4 10 -6 9 13 50 28 61 5 3 9 10 9 15 2 31 82 190 94
187 5 -1 10 9 10 21 2 28 58 108 69 98 5 -4 5 -1 1 5 -4 7 -2 18 3 25 6 7 34
42 63 78 59 73 68 81 81 73 5 -3 6 3 3 14 -5 16 12 38 81 103 48 45 89 77 91
71 5 -15 32 5 32 23 0 16 42 56 58 56 7 0 12 4 12 9 0 9 29 28 78 50 12 6 22
15 22 21 0 7 8 9 21 5 15 -5 19 -4 15 4 -4 6 0 11 8 11 9 0 16 4 16 10 0 5 11
12 25 16 14 3 25 10 25 15 0 5 7 5 17 2 10 -4 14 -2 10 4 -4 6 3 14 16 18 12
4 24 8 27 9 3 2 19 9 35 16 17 7 36 12 43 11 6 -1 12 3 12 8 0 5 20 13 45 17
25 3 43 10 40 14 -5 8 52 20 98 20 15 0 27 5 27 10 0 6 33 10 80 10 44 0 80
-4 80 -9 0 -5 25 -12 55 -16 30 -3 55 -10 55 -15 0 -4 16 -11 35 -14 19 -4 35
-12 35 -18 0 -5 7 -8 15 -4 8 3 15 1 15 -4 0 -6 7 -10 15 -10 8 0 15 -4 15 -8
0 -4 16 -14 35 -21 19 -7 35 -17 35 -22 0 -5 7 -9 15 -9 9 0 18 -7 21 -15 4
-8 12 -15 19 -15 8 0 20 -6 27 -14 19 -18 58 -30 58 -17 0 5 -7 16 -15 25 -8
8 -15 18 -15 23 0 5 -9 16 -20 26 -11 9 -20 23 -20 31 0 8 -7 16 -15 20 -8 3
-15 15 -15 26 0 11 -7 20 -15 20 -8 0 -17 14 -21 36 -4 23 -9 32 -15 23 -11
-19 -22 52 -17 115 3 32 11 61 21 71 9 9 17 23 17 31 0 8 7 14 15 14 8 0 14 3
13 8 -5 18 15 50 37 60 14 6 25 18 25 26 0 9 34 48 75 89 41 40 75 78 75 83 0
17 46 55 55 47 4 -5 5 -3 2 3 -4 6 7 23 23 38 17 14 30 33 30 40 0 8 9 18 20
21 11 4 18 10 15 15 -3 5 0 10 7 12 21 7 0 38 -27 38 -14 0 -25 -4 -25 -9z"/>
<path d="M11675 4123 c-11 -3 -23 -9 -26 -14 -3 -6 -23 -11 -44 -13 -22 -2
-41 -9 -43 -15 -2 -6 -11 -11 -21 -11 -9 0 -27 -7 -39 -16 l-22 -15 0 -915 c0
-696 3 -913 12 -908 8 5 9 2 5 -10 -4 -10 -3 -15 3 -11 6 4 23 -7 37 -24 15
-17 33 -31 40 -31 7 0 13 -4 13 -9 0 -5 21 -20 48 -33 26 -13 48 -26 50 -30 2
-4 19 -10 38 -14 19 -3 37 -10 40 -15 3 -5 9 -7 14 -4 5 3 11 1 15 -5 3 -5 17
-10 31 -10 13 0 24 -5 24 -11 0 -7 11 -8 29 -4 17 3 32 2 36 -4 3 -6 29 -11
56 -11 28 0 48 -3 45 -8 -2 -4 44 -7 104 -7 59 0 106 3 104 6 -4 7 41 18 83
21 12 1 19 6 17 10 -3 4 2 8 10 8 9 0 16 5 16 11 0 5 4 8 9 5 4 -3 21 10 36
28 16 19 34 32 42 29 7 -3 13 2 13 10 0 9 14 29 30 45 17 17 30 35 30 42 0 6
6 13 14 16 8 3 18 19 21 35 4 16 11 29 15 29 5 0 12 16 16 35 3 19 10 35 14
35 5 0 11 23 15 50 4 28 11 50 16 50 5 0 9 12 9 28 0 15 7 40 15 55 8 15 10
25 5 22 -6 -4 -10 7 -10 24 0 17 5 31 10 31 7 0 10 39 9 105 -1 58 -5 103 -9
100 -4 -2 -11 31 -14 75 -4 44 -11 80 -15 80 -5 0 -11 18 -15 40 -3 22 -11 40
-16 40 -6 0 -10 9 -10 19 0 11 -8 27 -17 37 -10 10 -17 18 -15 18 9 2 -15 43
-36 63 -16 15 -20 23 -11 23 8 0 -2 14 -21 30 -19 16 -39 30 -43 30 -4 0 -20
11 -35 25 -15 14 -37 28 -49 31 -13 4 -23 10 -23 15 0 4 -17 11 -37 15 -21 4
-41 12 -45 18 -10 15 -306 15 -316 0 -4 -6 -24 -14 -44 -18 -21 -4 -38 -11
-38 -15 0 -5 -16 -12 -35 -15 -20 -4 -33 -11 -30 -16 3 -5 -6 -12 -20 -16 -14
-3 -25 -10 -25 -15 0 -5 -4 -9 -10 -9 -7 0 -10 152 -10 435 0 342 -3 435 -12
434 -7 -1 -22 -4 -33 -6z m455 -924 c0 -7 10 -9 25 -5 14 4 25 2 25 -4 0 -5 7
-10 15 -10 8 0 15 -4 15 -10 0 -5 6 -7 13 -4 7 2 19 -7 27 -20 7 -14 22 -28
32 -32 11 -3 24 -19 30 -35 5 -16 14 -29 19 -29 4 0 11 -16 15 -35 3 -19 11
-35 16 -35 5 0 6 -9 3 -20 -4 -11 -2 -20 4 -20 6 0 11 -20 11 -45 0 -25 4 -45
8 -45 10 0 10 -306 0 -316 -5 -4 -8 -25 -8 -46 0 -21 -5 -38 -10 -38 -6 0 -8
-11 -4 -25 4 -15 2 -25 -5 -25 -6 0 -11 -9 -11 -21 0 -11 -4 -18 -9 -14 -6 3
-8 -6 -5 -20 2 -14 0 -25 -6 -25 -5 0 -10 -7 -10 -15 0 -9 -7 -18 -15 -21 -8
-4 -12 -10 -9 -16 6 -9 -44 -58 -58 -58 -5 0 -8 -5 -8 -11 0 -16 -29 -41 -40
-34 -5 3 -10 1 -10 -4 0 -6 -9 -11 -20 -11 -11 0 -20 -4 -20 -9 0 -11 -179
-11 -186 1 -3 4 -18 8 -35 8 -16 0 -29 4 -29 9 0 4 -11 6 -25 3 -15 -2 -25 0
-25 7 0 6 -3 10 -7 9 -10 -2 -47 16 -88 40 l-30 19 3 439 c3 367 6 440 18 442
8 2 14 8 14 14 0 6 9 8 20 5 11 -3 18 -1 14 4 -3 5 2 9 10 9 9 0 16 5 16 11 0
6 9 8 20 4 11 -4 20 -2 20 4 0 6 9 11 20 11 11 0 20 5 20 11 0 7 10 9 25 5 14
-4 25 -2 25 4 0 6 37 10 95 10 63 0 95 -4 95 -11z"/>
<path d="M6966 3391 c-3 -4 -27 -11 -53 -14 -26 -3 -61 -13 -78 -21 -16 -9
-36 -16 -42 -16 -7 0 -13 -4 -13 -10 0 -5 -9 -10 -20 -10 -10 0 -24 -8 -29
-19 -6 -10 -22 -22 -36 -25 -15 -4 -27 -16 -31 -30 -3 -14 -12 -27 -20 -30 -8
-3 -14 -13 -14 -21 0 -9 -7 -23 -15 -31 -8 -9 -15 -26 -15 -39 0 -13 -5 -25
-10 -27 -18 -6 -14 -178 4 -213 9 -16 16 -36 16 -42 0 -7 4 -13 9 -13 5 0 13
-9 16 -21 8 -25 43 -61 53 -55 4 2 12 -2 19 -9 10 -11 10 -14 0 -18 -7 -3 2
-8 18 -12 17 -5 33 -13 37 -18 3 -6 17 -12 29 -14 13 -2 26 -8 29 -14 4 -5 14
-7 23 -3 10 3 17 1 17 -5 0 -6 9 -11 20 -11 11 0 20 -4 20 -9 0 -5 9 -7 20 -4
11 3 20 1 20 -5 0 -6 18 -13 40 -17 22 -4 40 -10 40 -15 0 -4 16 -11 35 -14
19 -4 35 -11 35 -15 0 -5 16 -12 35 -15 19 -4 35 -11 35 -15 0 -5 10 -11 23
-15 34 -8 75 -47 82 -78 4 -16 11 -28 16 -28 5 0 9 -25 9 -55 0 -30 -4 -55
-10 -55 -5 0 -10 -6 -10 -14 0 -7 -7 -19 -15 -26 -9 -7 -13 -15 -11 -18 8 -7
-21 -32 -38 -32 -9 0 -16 -7 -16 -15 0 -8 -14 -17 -35 -21 -19 -3 -35 -11 -35
-16 0 -5 -8 -8 -17 -7 -10 1 -26 -1 -35 -5 -9 -4 -54 -5 -100 -2 -46 2 -92 5
-103 6 -10 0 -24 5 -30 10 -5 4 -27 11 -47 15 -21 4 -38 10 -38 14 0 4 -12 12
-27 18 -34 15 -66 35 -75 47 -7 11 -31 -11 -41 -36 -3 -10 -11 -18 -18 -18 -6
0 -9 -7 -6 -14 3 -8 -5 -25 -18 -38 l-23 -22 25 -23 c13 -13 28 -21 33 -18 4
3 19 -6 31 -20 13 -13 34 -25 45 -25 12 0 25 -7 28 -16 4 -9 9 -14 13 -10 3 3
15 -2 26 -11 11 -10 17 -12 13 -5 -8 14 10 17 18 3 3 -5 15 -7 26 -4 11 3 20
0 20 -6 0 -6 17 -11 39 -11 22 0 43 -4 46 -10 8 -13 152 -13 160 0 3 5 23 10
44 10 20 0 43 6 49 12 10 10 15 10 21 -1 6 -8 11 -9 15 -3 9 15 67 43 76 37 5
-3 10 0 12 5 2 6 13 12 26 13 12 0 22 7 22 14 0 7 4 13 9 13 4 0 36 27 70 60
34 33 59 60 56 60 -4 0 1 7 9 16 9 8 16 24 16 35 0 10 4 19 9 19 10 0 12 26
13 128 0 77 -4 112 -14 112 -4 0 -8 11 -8 25 0 14 -7 28 -15 31 -8 4 -15 12
-15 20 0 17 -58 74 -76 74 -8 0 -14 5 -14 10 0 6 -8 14 -17 17 -10 4 -24 13
-31 20 -7 7 -22 13 -33 13 -10 0 -19 5 -19 11 0 6 -7 9 -15 5 -8 -3 -15 -1
-15 4 0 6 -10 10 -22 10 -17 0 -19 3 -10 9 9 5 -4 11 -37 15 -28 4 -51 11 -51
17 0 6 -4 8 -9 5 -13 -8 -62 19 -53 29 4 5 -1 5 -12 1 -10 -3 -24 -2 -30 2 -6
5 -24 12 -40 16 -15 4 -35 14 -43 21 -8 8 -23 15 -34 15 -10 0 -19 4 -19 9 0
5 -9 13 -20 16 -11 4 -18 10 -16 14 6 9 -30 41 -38 34 -6 -6 -10 74 -6 112 1
11 7 26 12 33 6 6 8 12 4 12 -3 0 10 16 28 35 19 19 39 35 45 35 6 0 11 5 11
11 0 5 5 7 11 3 6 -3 15 0 20 7 6 11 38 14 133 14 113 0 127 -2 140 -20 11
-14 15 -16 16 -5 0 11 3 11 12 2 7 -7 20 -12 30 -12 10 0 18 -4 18 -10 0 -5 3
-10 8 -9 15 2 52 -14 52 -22 0 -20 20 -7 26 16 3 14 10 25 14 25 5 0 12 10 16
23 4 12 11 25 17 29 6 3 12 20 13 37 1 22 -2 28 -12 24 -8 -3 -14 0 -14 5 0 6
-16 14 -35 18 -19 3 -33 10 -30 14 3 4 -12 11 -33 15 -20 4 -42 11 -48 16 -7
5 -35 12 -63 16 -28 3 -48 10 -45 14 3 5 -35 9 -85 9 -49 0 -92 -4 -95 -9z"/>
<path d="M9790 3393 c0 -6 -37 -13 -87 -17 -48 -3 -90 -10 -93 -15 -3 -5 -24
-12 -47 -16 -24 -4 -43 -10 -43 -15 0 -5 -18 -11 -40 -15 -22 -4 -40 -11 -40
-17 0 -5 -8 -8 -17 -6 -10 2 -29 -7 -43 -19 -14 -13 -30 -23 -37 -23 -7 0 -13
-4 -13 -9 0 -5 -10 -13 -22 -17 -12 -4 -41 -27 -65 -53 l-42 -46 -1 -563 0
-563 115 2 114 1 1 539 c0 296 3 545 6 554 4 9 13 14 20 11 7 -3 16 4 19 15 4
12 12 18 21 15 8 -3 14 -1 14 4 0 8 41 26 49 21 2 -2 7 2 10 8 6 10 85 27 170
38 29 3 41 2 37 -5 -8 -13 25 -18 76 -14 26 3 35 8 31 18 -3 8 0 14 6 14 6 0
11 9 11 19 0 11 8 26 19 33 20 14 21 17 21 48 0 11 7 20 15 20 13 0 13 3 3 20
-11 17 -24 20 -78 20 -38 0 -71 5 -78 12 -7 7 -12 8 -12 1z"/>
<path d="M7953 3373 c-13 -2 -23 -8 -23 -13 0 -4 -20 -11 -45 -14 -25 -4 -45
-11 -45 -16 0 -4 -18 -11 -41 -15 l-40 -7 3 -529 c2 -370 6 -532 14 -537 6 -4
14 -19 18 -35 3 -15 14 -36 24 -47 9 -12 17 -25 17 -29 0 -13 43 -49 66 -56
11 -4 19 -11 19 -16 0 -5 7 -9 15 -9 8 0 15 -4 15 -9 0 -5 14 -12 30 -16 17
-4 30 -11 30 -15 0 -5 6 -7 14 -4 8 3 17 1 21 -5 3 -6 21 -11 40 -11 19 0 37
-5 40 -11 5 -6 44 -9 105 -8 55 1 97 6 94 11 -3 4 18 8 45 8 29 0 51 5 51 10
0 7 13 8 36 4 24 -4 35 -3 31 3 -4 7 11 13 38 17 25 4 45 11 45 16 0 5 16 12
35 16 19 3 35 10 35 14 0 5 14 11 30 15 17 4 30 11 30 15 0 5 15 12 34 16 19
3 37 12 40 20 3 8 12 14 20 14 7 0 16 7 20 15 3 8 14 15 25 15 10 0 21 7 24
15 4 8 6 272 7 587 l0 573 -115 -3 -115 -3 0 -555 c0 -467 -2 -554 -14 -554
-8 0 -16 -7 -20 -15 -3 -8 -12 -15 -21 -15 -8 0 -15 -4 -15 -9 0 -5 -12 -12
-27 -16 -15 -3 -30 -11 -34 -16 -3 -5 -25 -11 -50 -14 -24 -2 -45 -9 -47 -15
-2 -5 -22 -10 -43 -10 -22 0 -38 4 -35 8 3 5 -1 9 -9 9 -8 0 -12 -4 -9 -9 8
-12 -60 -10 -73 3 -5 5 -25 12 -44 14 -19 3 -35 9 -37 15 -2 5 -10 10 -17 10
-8 0 -18 6 -22 13 -4 6 -20 18 -35 26 -15 8 -31 23 -34 35 -4 11 -13 26 -20
34 -8 7 -14 24 -14 38 0 13 -3 24 -7 24 -5 0 -7 232 -5 515 3 569 9 520 -55
508z"/>
<path d="M10543 3373 c-29 -2 -53 -8 -53 -12 0 -5 -24 -12 -52 -15 -29 -4 -55
-11 -58 -16 -3 -5 -18 -10 -33 -12 -16 -3 -32 -10 -37 -18 -4 -7 -15 -10 -25
-7 -10 4 -14 3 -10 -4 4 -6 -1 -9 -11 -7 -16 2 -19 -3 -17 -31 0 -18 5 -36 11
-40 5 -3 13 -21 17 -38 4 -19 13 -33 21 -33 9 0 13 -5 9 -12 -4 -7 0 -6 7 3 7
9 28 20 46 23 17 4 32 12 32 17 0 5 9 9 19 9 11 0 23 5 26 10 4 6 11 7 17 4 6
-4 14 0 19 7 6 11 40 14 149 14 109 0 143 -3 149 -14 5 -7 14 -10 20 -7 6 4
11 2 11 -3 0 -6 5 -11 12 -11 13 0 88 -76 88 -90 0 -6 4 -10 10 -10 5 0 7 -7
4 -15 -4 -8 -1 -15 5 -15 7 0 11 -34 11 -100 l0 -100 -227 -2 c-286 -2 -273
-1 -283 -17 -5 -9 -17 -11 -35 -7 -17 4 -24 3 -20 -4 3 -6 -3 -10 -14 -10 -12
0 -21 -6 -21 -12 0 -9 -4 -8 -10 2 -9 13 -14 7 -11 -12 0 -5 -6 -8 -14 -8 -8
0 -15 -5 -15 -11 0 -5 -13 -15 -30 -20 -16 -6 -32 -20 -36 -32 -3 -12 -17 -32
-31 -44 -14 -12 -22 -27 -18 -32 3 -6 1 -11 -4 -11 -6 0 -11 -7 -11 -15 0 -8
-4 -15 -9 -15 -9 0 -17 -43 -27 -150 -3 -36 -7 -71 -10 -78 -2 -7 1 -10 7 -6
7 4 10 -4 9 -22 -3 -36 10 -94 20 -94 4 0 11 -12 14 -26 4 -14 18 -37 31 -50
14 -14 25 -30 25 -37 0 -16 40 -53 68 -61 12 -4 22 -12 22 -17 0 -5 7 -9 15
-9 8 0 15 -4 15 -10 0 -5 11 -12 25 -16 14 -3 22 -11 18 -17 -4 -6 3 -8 21 -3
15 4 26 2 26 -4 0 -5 14 -10 30 -10 17 0 30 -4 30 -8 0 -5 47 -9 105 -9 57 0
102 4 99 9 -3 4 13 8 35 8 22 0 43 5 46 11 4 6 19 7 37 4 20 -5 28 -4 24 3 -4
7 11 13 39 17 25 4 45 11 45 16 0 5 7 9 15 9 8 0 15 5 15 12 0 6 3 8 6 5 4 -3
16 0 28 8 11 8 30 15 41 15 16 0 17 2 5 10 -13 8 -13 10 3 11 31 3 35 4 44 13
5 5 2 6 -6 1 -9 -5 -12 -4 -7 3 4 7 13 12 19 12 7 0 23 13 37 30 13 16 27 25
30 21 3 -5 5 195 5 444 0 249 -3 451 -7 448 -5 -2 -8 7 -8 21 0 14 -5 26 -11
26 -6 0 -9 7 -5 15 3 8 1 15 -4 15 -6 0 -10 7 -10 15 0 7 -7 18 -16 23 -8 5
-16 15 -18 24 -2 17 -35 53 -47 53 -5 0 -17 8 -29 17 -11 10 -31 20 -45 24
-14 3 -25 10 -25 14 0 5 -15 12 -32 15 -18 4 -36 12 -39 17 -7 11 -220 18
-306 11z m387 -910 l0 -231 -30 -11 c-16 -5 -30 -14 -30 -20 0 -13 -81 -51
-108 -51 -12 0 -22 -4 -22 -9 0 -6 -38 -10 -85 -10 -47 1 -85 4 -85 8 0 4 -20
12 -44 19 -28 7 -47 19 -51 31 -3 10 -17 22 -31 25 -14 4 -24 12 -21 19 2 6
-7 20 -20 30 -13 10 -23 25 -23 33 0 8 -4 14 -9 14 -5 0 -7 9 -4 20 3 11 0 20
-6 20 -13 0 -16 162 -3 174 4 4 7 12 7 16 0 15 88 110 102 110 7 0 13 5 13 11
0 6 7 9 15 5 8 -3 15 -1 15 4 0 6 11 10 25 10 14 0 25 4 25 8 0 5 83 8 185 8
l185 -1 0 -232z"/>
<path d="M13328 3373 c-32 -2 -58 -8 -58 -13 0 -4 -22 -11 -50 -15 -27 -4 -50
-10 -50 -15 0 -4 -16 -11 -35 -14 -19 -4 -35 -12 -35 -18 0 -6 -9 -8 -20 -5
-11 3 -18 1 -14 -4 3 -5 -1 -9 -8 -9 -26 0 -36 -20 -24 -46 6 -13 14 -24 19
-24 4 0 7 -7 7 -16 0 -9 -5 -13 -12 -9 -7 4 -5 0 5 -8 9 -8 17 -19 17 -26 0
-6 3 -11 8 -12 4 0 15 -2 25 -4 9 -2 15 1 11 6 -3 5 3 10 13 11 10 0 24 2 31
2 7 1 16 6 20 13 4 6 21 15 37 19 17 4 36 12 44 18 9 7 66 11 153 11 112 0
141 -3 148 -15 5 -8 10 -12 10 -7 0 25 114 -79 126 -115 3 -13 10 -25 14 -28
4 -3 5 -48 2 -102 l-5 -96 -249 -4 c-199 -2 -250 -6 -257 -17 -5 -8 -16 -11
-25 -8 -9 4 -16 3 -16 -2 0 -5 -8 -11 -17 -15 -10 -3 -24 -9 -32 -12 -9 -5
-11 -3 -6 6 5 9 4 11 -4 6 -6 -4 -9 -12 -6 -17 4 -5 0 -9 -8 -9 -8 0 -17 -7
-21 -15 -3 -8 -15 -15 -26 -15 -13 0 -25 -10 -32 -27 -7 -16 -22 -37 -34 -49
-12 -11 -25 -32 -29 -45 -4 -13 -12 -27 -16 -30 -5 -3 -12 -33 -15 -67 -4 -34
-11 -62 -15 -62 -13 0 -11 -44 3 -58 9 -9 9 -15 0 -24 -15 -15 -16 -32 -1 -22
7 4 10 -4 9 -22 -3 -36 10 -94 20 -94 5 0 11 -13 15 -29 3 -16 17 -39 31 -51
13 -13 24 -28 24 -34 0 -12 37 -49 60 -59 8 -4 29 -16 45 -27 17 -11 38 -23
48 -26 9 -4 17 -10 17 -15 0 -4 21 -11 48 -15 26 -3 52 -10 57 -14 14 -11 173
-11 180 1 4 5 28 9 56 9 29 0 49 4 49 11 0 7 10 9 25 5 14 -4 25 -2 25 3 0 5
18 12 40 16 22 4 40 10 40 15 0 8 38 23 53 21 4 -1 7 4 7 9 0 6 6 10 14 10 7
0 19 6 25 14 7 8 26 18 43 21 23 5 27 9 17 16 -12 7 -11 9 2 9 8 0 30 15 48
33 l32 34 -3 457 c-2 322 -6 459 -14 464 -6 4 -15 18 -19 31 -4 13 -19 35 -33
48 -14 13 -22 26 -19 29 7 7 -28 37 -55 47 -10 3 -18 11 -18 16 0 5 -13 12
-30 16 -16 4 -30 10 -30 15 0 5 -15 12 -32 15 -18 4 -39 12 -46 18 -13 11
-208 17 -304 10z m390 -908 l-3 -230 -27 -13 c-16 -7 -28 -17 -28 -23 0 -5 -7
-9 -15 -9 -8 0 -15 -5 -15 -11 0 -5 -4 -7 -10 -4 -5 3 -10 1 -10 -6 0 -6 -8
-9 -20 -6 -11 3 -18 1 -14 -4 3 -5 -6 -9 -20 -9 -14 0 -26 -4 -26 -9 0 -6 -38
-10 -85 -10 -47 1 -85 4 -85 8 0 4 -20 12 -44 19 -28 7 -47 19 -51 31 -3 10
-17 22 -31 25 -17 5 -24 12 -20 21 3 8 -3 17 -14 20 -11 4 -23 17 -26 31 -3
13 -10 24 -14 24 -5 0 -6 10 -2 22 3 14 2 19 -6 14 -9 -5 -12 19 -12 89 0 61
4 94 10 90 5 -3 7 0 4 9 -3 8 9 29 30 51 20 20 36 41 36 47 0 6 7 8 14 5 10
-4 13 -1 9 9 -4 10 0 12 11 8 9 -4 16 -1 16 6 0 7 7 10 15 6 8 -3 15 -1 15 4
0 6 9 10 19 10 11 0 22 4 25 8 2 4 88 8 191 8 l185 -1 -2 -230z"/>
<path d="M14478 3372 c-16 -2 -28 -7 -28 -12 0 -4 -18 -11 -40 -15 -22 -4 -40
-10 -40 -15 0 -4 -18 -10 -40 -14 l-41 -6 1 -522 c1 -286 4 -527 7 -534 3 -8
9 -11 14 -8 5 3 9 -4 9 -15 0 -34 1 -36 16 -44 8 -4 14 -17 14 -27 0 -11 5
-20 10 -20 6 0 29 -19 51 -42 23 -24 46 -42 50 -41 5 2 14 -7 20 -18 9 -17 13
-19 20 -8 6 9 9 10 9 2 0 -7 16 -15 35 -19 19 -3 38 -10 41 -15 3 -5 18 -9 34
-9 16 0 32 -5 35 -11 5 -6 46 -9 111 -8 56 1 101 6 98 11 -3 4 17 8 45 8 27 0
53 5 56 10 4 6 15 8 25 5 10 -3 21 -1 25 5 3 5 15 10 26 10 10 0 19 4 19 10 0
5 7 7 15 4 8 -4 15 -1 15 5 0 6 8 11 18 11 9 0 30 7 46 15 15 8 32 15 37 15 5
0 9 -41 9 -91 0 -66 -3 -88 -12 -83 -6 4 -9 3 -5 -2 9 -15 -13 -178 -25 -185
-6 -4 -7 -12 -4 -18 4 -6 2 -11 -3 -11 -6 0 -11 -7 -11 -16 0 -8 -4 -12 -10
-9 -5 3 -10 2 -10 -3 0 -11 -80 -95 -80 -85 0 5 -4 3 -8 -2 -11 -16 -97 -55
-121 -55 -11 0 -21 -4 -21 -9 0 -6 -31 -13 -70 -17 -38 -3 -70 -11 -70 -15 0
-5 -22 -9 -49 -9 -28 0 -52 -3 -54 -7 -8 -15 5 -93 15 -87 5 3 9 -2 8 -12 -1
-11 -2 -27 -1 -38 1 -20 14 -19 151 4 36 6 77 11 93 10 15 0 27 4 27 9 0 5 20
12 45 15 25 4 45 11 45 15 0 5 16 12 35 15 19 4 35 11 35 15 0 9 48 26 63 22
5 -1 6 3 3 8 -4 5 3 12 14 16 27 9 159 143 146 149 -7 3 -6 5 2 5 6 1 12 8 12
16 0 8 4 15 9 15 6 0 13 20 17 45 3 25 10 45 14 45 8 0 19 103 22 197 1 29 5
50 10 47 4 -3 8 306 8 685 l0 691 -120 0 -120 0 0 -546 0 -546 -30 -11 c-16
-6 -30 -15 -30 -18 0 -4 -13 -10 -30 -14 -16 -4 -30 -11 -30 -15 0 -5 -17 -12
-37 -16 -21 -4 -41 -12 -45 -18 -10 -15 -256 -15 -266 0 -4 6 -18 15 -31 19
-14 4 -29 11 -35 16 -6 5 -23 18 -38 30 -16 11 -28 27 -28 35 0 8 -4 14 -10
14 -5 0 -6 7 -3 17 4 10 2 14 -4 10 -13 -8 -26 28 -23 66 1 15 -3 27 -9 27 -8
0 -11 146 -11 484 0 267 -3 486 -7 488 -5 2 -20 2 -35 0z"/>
<path d="M16118 3373 c-32 -2 -58 -8 -58 -13 0 -4 -22 -11 -50 -15 -27 -4 -50
-10 -50 -15 0 -4 -16 -11 -35 -14 -19 -4 -35 -12 -35 -18 0 -6 -9 -8 -20 -5
-11 3 -18 1 -14 -4 3 -5 -5 -9 -18 -9 -17 0 -24 -6 -25 -20 -1 -11 2 -20 7
-20 5 0 12 -16 16 -35 3 -19 10 -35 15 -35 5 0 9 -6 9 -14 0 -16 30 -31 39
-19 3 4 13 9 21 11 8 2 16 7 18 12 2 5 10 6 18 3 8 -3 14 0 14 5 0 6 17 14 38
18 20 4 40 12 44 18 11 17 276 15 287 -2 4 -7 12 -12 17 -10 23 6 113 -71 114
-99 0 -6 6 -13 13 -15 8 -3 13 -38 15 -115 l4 -111 -252 -3 c-201 -3 -252 -7
-259 -18 -5 -8 -16 -11 -24 -8 -9 3 -17 2 -19 -3 -2 -6 -15 -11 -30 -12 -15
-1 -24 -6 -21 -11 3 -4 -4 -11 -15 -14 -11 -3 -23 -11 -26 -19 -3 -8 -13 -14
-23 -14 -16 0 -44 -31 -42 -46 0 -3 -11 -16 -24 -28 -14 -13 -28 -34 -32 -47
-4 -13 -12 -27 -16 -30 -5 -3 -12 -33 -15 -67 -4 -34 -11 -59 -15 -56 -5 3 -9
-20 -9 -51 0 -38 4 -54 11 -49 7 4 10 -5 9 -27 -3 -44 10 -99 22 -99 6 0 7 -7
4 -16 -3 -8 -2 -12 4 -9 6 3 11 -1 11 -9 1 -9 2 -20 3 -26 0 -5 10 -16 21 -24
11 -8 20 -19 20 -24 0 -14 48 -62 63 -62 7 0 15 -7 18 -15 4 -8 13 -15 21 -15
8 0 11 -5 8 -10 -4 -6 -3 -9 2 -8 15 4 53 -13 53 -24 0 -6 9 -8 20 -5 11 3 23
1 26 -4 3 -5 18 -9 34 -9 16 0 31 -4 35 -10 3 -5 50 -8 105 -8 54 1 97 5 94
10 -3 4 13 8 35 8 22 0 43 5 46 10 3 6 17 7 31 4 14 -4 24 -2 24 4 0 6 18 13
40 17 22 4 40 10 40 15 0 7 29 18 47 18 3 0 9 5 13 12 4 6 16 12 28 13 11 0
20 6 19 11 -1 6 4 10 11 11 8 0 19 7 25 16 7 9 23 19 35 23 13 5 21 10 18 13
-2 3 6 15 20 28 l25 23 -3 458 c-2 355 -6 458 -15 462 -7 2 -13 10 -13 18 0 8
-4 14 -9 14 -5 0 -7 10 -3 22 3 12 1 19 -5 15 -11 -7 -38 22 -48 52 -4 12 -12
20 -18 18 -7 -2 -22 6 -34 19 -12 13 -33 26 -47 30 -14 3 -26 10 -26 15 0 4
-17 11 -37 15 -21 4 -41 11 -44 17 -7 10 -206 17 -301 10z m387 -911 l0 -227
-27 -13 c-16 -7 -28 -17 -28 -23 0 -5 -5 -9 -11 -9 -6 0 -18 -7 -26 -16 -9 -8
-24 -13 -34 -11 -11 3 -19 1 -19 -4 0 -5 -9 -9 -20 -9 -11 0 -20 -4 -20 -9 0
-6 -38 -10 -85 -10 -47 1 -85 4 -85 9 0 4 -16 11 -35 14 -19 4 -35 11 -35 17
0 6 -4 8 -9 4 -5 -3 -12 3 -16 14 -3 10 -17 22 -30 25 -14 4 -25 12 -25 19 0
7 -9 20 -20 30 -11 9 -20 24 -20 32 0 8 -4 15 -9 15 -6 0 -13 21 -16 48 -3 26
-10 57 -15 69 -5 12 -6 25 -1 27 5 3 11 28 15 54 5 39 14 57 47 91 22 22 45
39 50 36 5 -4 6 2 2 11 -4 12 -3 15 5 10 7 -4 12 -2 12 5 0 6 8 9 20 6 11 -3
18 -1 14 4 -3 5 6 9 20 9 14 0 27 4 30 8 3 5 87 7 188 5 l183 -4 0 -227z"/>
<path d="M18245 3373 c-27 -2 -54 -8 -60 -12 -5 -5 -31 -12 -57 -15 -27 -4
-48 -11 -48 -15 0 -5 -20 -12 -45 -15 -25 -4 -45 -12 -45 -18 0 -5 -7 -8 -15
-4 -8 3 -15 1 -15 -4 0 -6 -7 -10 -15 -10 -8 0 -15 -5 -15 -11 0 -6 -7 -8 -17
-5 -10 4 -14 4 -11 0 7 -7 -33 -44 -48 -44 -4 0 -24 -18 -44 -40 -20 -22 -39
-38 -41 -36 -2 2 -4 -391 -4 -875 l0 -879 23 0 c15 0 21 -4 16 -12 -5 -8 0 -9
14 -6 12 4 25 2 28 -3 3 -5 14 -9 25 -9 10 0 19 -4 19 -9 0 -5 18 -12 40 -16
22 -4 38 -10 36 -14 -3 -4 4 -8 15 -8 18 -2 19 9 19 388 0 216 4 389 9 389 5
0 14 -7 21 -15 7 -8 16 -12 21 -9 5 3 9 0 9 -5 0 -6 9 -11 21 -11 11 0 18 -4
15 -9 -3 -5 10 -11 29 -14 19 -3 43 -13 52 -22 13 -13 18 -14 24 -3 7 9 11 10
17 2 4 -6 25 -15 47 -19 59 -11 215 -14 209 -4 -3 5 11 9 30 9 20 0 36 5 36
11 0 6 9 9 20 6 11 -3 20 -1 20 4 0 5 7 9 15 9 8 0 15 5 15 11 0 6 6 9 12 7
14 -5 24 2 70 45 16 15 36 27 43 27 8 0 17 9 20 20 4 11 11 18 16 15 5 -3 6 0
4 8 -3 7 5 19 19 27 14 7 25 16 24 19 -2 20 3 31 13 25 8 -4 9 0 4 15 -4 12
-2 21 4 21 6 0 11 7 11 16 0 8 5 12 11 8 8 -4 9 0 4 15 -3 12 -2 21 3 21 6 0
13 19 17 43 4 23 12 45 17 48 5 3 11 45 15 92 3 48 10 84 14 81 5 -3 9 26 9
65 0 38 -4 72 -9 75 -4 3 -11 49 -15 103 -4 53 -10 100 -15 103 -5 3 -12 24
-16 47 -4 24 -10 45 -15 48 -4 3 -6 15 -2 27 4 16 2 19 -8 13 -10 -6 -12 -4
-7 9 4 10 1 19 -8 22 -8 3 -11 12 -8 21 4 11 2 14 -5 9 -7 -4 -12 -1 -12 8 0
9 -4 16 -10 16 -5 0 -6 7 -3 17 4 9 2 14 -3 11 -5 -3 -15 0 -22 8 -7 8 -9 14
-4 14 16 0 -62 77 -85 84 -11 4 -24 13 -27 21 -3 8 -13 15 -21 15 -9 0 -23 7
-31 15 -9 8 -26 15 -39 15 -13 0 -25 4 -27 10 -3 11 -224 20 -303 13z m171
-155 c4 -5 16 -8 26 -8 10 0 18 -4 18 -10 0 -5 6 -7 14 -4 9 3 17 -3 21 -15 3
-12 11 -19 16 -16 12 8 37 -17 32 -32 -2 -6 5 -14 17 -18 19 -6 46 -49 42 -67
-1 -5 2 -8 7 -8 5 0 11 -19 15 -42 4 -23 12 -45 17 -49 25 -15 26 -522 1 -538
-5 -3 -13 -25 -17 -48 -3 -23 -13 -44 -21 -47 -8 -3 -14 -12 -14 -20 0 -7 -7
-16 -15 -20 -8 -3 -15 -15 -15 -26 0 -13 -10 -25 -27 -33 -16 -6 -32 -17 -36
-24 -4 -7 -15 -13 -22 -13 -8 0 -15 -5 -15 -11 0 -7 -10 -9 -25 -5 -14 4 -25
2 -25 -4 0 -6 -34 -10 -85 -10 -49 0 -85 4 -85 10 0 5 -13 7 -30 4 -18 -4 -30
-2 -30 4 0 5 -16 13 -35 16 -19 4 -35 11 -35 16 0 6 -9 10 -19 10 -11 0 -26 7
-35 15 -8 9 -17 16 -18 16 -18 -1 -47 13 -42 20 3 5 0 9 -5 9 -8 0 -11 132
-11 424 0 364 2 425 15 436 8 7 15 9 15 5 0 -5 8 1 18 12 9 11 23 18 30 16 6
-3 12 0 12 6 0 6 9 11 20 11 11 0 20 5 20 11 0 6 9 8 20 4 11 -4 20 -2 20 4 0
6 15 11 34 11 19 0 37 4 40 8 6 11 181 10 192 0z"/>
<path d="M19468 3373 c-16 -2 -28 -8 -28 -13 0 -4 -18 -11 -40 -15 -22 -4 -40
-10 -40 -15 0 -4 -18 -10 -41 -14 l-40 -6 3 -531 c2 -404 6 -532 15 -537 7 -4
14 -19 16 -32 2 -13 9 -26 15 -28 7 -2 12 -8 12 -13 0 -6 25 -34 55 -62 78
-74 84 -79 95 -72 6 3 10 1 10 -4 0 -6 7 -11 15 -11 8 0 15 -5 15 -11 0 -6 8
-8 19 -4 11 3 22 1 26 -5 3 -5 19 -10 35 -10 16 0 32 -5 35 -11 5 -6 46 -9
111 -8 56 1 101 6 98 11 -3 4 17 8 45 8 27 0 53 5 56 10 4 6 15 8 26 5 11 -4
19 -2 19 5 0 8 8 10 21 7 12 -3 22 0 25 8 3 7 14 11 26 7 14 -3 19 -1 14 6 -4
8 0 12 11 12 10 0 31 7 47 15 15 8 32 15 37 15 5 0 9 -40 9 -90 0 -49 -4 -90
-9 -90 -4 0 -11 -39 -14 -86 -3 -52 -10 -90 -17 -94 -7 -4 -9 -13 -6 -19 4 -6
2 -11 -3 -11 -6 0 -11 -7 -11 -15 0 -8 -3 -15 -8 -15 -4 0 -22 -14 -40 -30
-18 -16 -31 -30 -27 -30 3 0 0 -6 -7 -14 -7 -8 -16 -12 -20 -9 -5 2 -8 0 -8
-6 0 -5 -14 -12 -30 -16 -17 -4 -28 -11 -24 -16 5 -8 -6 -11 -60 -13 -11 -1
-21 -7 -23 -13 -3 -7 -35 -15 -74 -19 -38 -4 -69 -11 -69 -15 0 -5 -25 -9 -55
-9 -41 0 -55 -4 -55 -14 0 -8 5 -18 10 -21 6 -3 7 -17 4 -31 -4 -14 -2 -24 5
-24 6 0 11 -8 11 -17 0 -16 -2 -16 -11 -3 -9 13 -10 13 -5 0 3 -8 9 -23 12
-32 7 -20 72 -26 89 -9 9 9 97 20 158 21 15 0 27 4 27 9 0 5 20 12 45 15 25 4
45 11 45 16 0 6 18 13 40 16 23 4 39 9 36 11 -3 3 15 16 40 29 24 13 57 35 71
48 15 14 31 22 36 19 6 -3 7 -1 4 4 -4 6 11 27 33 47 23 20 38 41 35 46 -3 6
-1 10 4 10 6 0 11 6 11 14 0 8 8 17 17 20 15 6 15 8 3 16 -10 7 -11 10 -2 10
7 0 12 13 12 30 0 17 4 30 9 30 8 0 17 77 24 207 1 24 5 43 9 43 4 0 8 308 8
685 l0 685 -120 0 -120 0 0 -539 c0 -477 -2 -541 -16 -555 -8 -9 -21 -16 -29
-16 -7 0 -15 -3 -17 -7 -5 -13 -94 -53 -116 -53 -11 0 -22 -6 -24 -12 -6 -17
-255 -18 -266 -2 -4 6 -18 15 -31 19 -14 4 -29 11 -35 16 -6 5 -23 18 -38 30
-16 11 -28 27 -28 35 0 8 -5 14 -11 14 -5 0 -7 5 -4 10 3 6 3 10 -2 10 -14 0
-30 46 -28 78 1 17 -2 29 -7 26 -4 -3 -8 216 -8 485 0 270 -3 490 -7 490 -5
-1 -20 -4 -35 -6z"/>
<path d="M17175 2300 c-4 -6 -12 -9 -18 -7 -16 5 -77 -62 -77 -84 0 -10 -4
-21 -10 -24 -13 -8 -13 -85 -1 -85 5 0 12 -13 16 -29 8 -38 35 -68 68 -76 15
-4 30 -11 33 -16 7 -12 71 -11 79 1 3 6 12 10 20 10 7 0 30 17 51 38 38 36 39
38 39 113 0 72 -2 77 -32 108 -18 18 -33 36 -33 41 0 5 -8 9 -17 10 -10 0 -39
3 -64 6 -30 4 -49 2 -54 -6z"/>
</g>
</svg>
