<?xml version="1.0" standalone="no"?>
<!DOCTYPE svg PUBLIC "-//W3C//DTD SVG 20010904//EN"
 "http://www.w3.org/TR/2001/REC-SVG-20010904/DTD/svg10.dtd">
<svg version="1.0" xmlns="http://www.w3.org/2000/svg"
 width="280.000000pt" height="280.000000pt" viewBox="0 0 280.000000 280.000000"
 preserveAspectRatio="xMidYMid meet">
<metadata>
Created by potrace 1.16, written by Peter Selinger 2001-2019
</metadata>
<g transform="translate(0.000000,280.000000) scale(0.100000,-0.100000)"
fill="#000000" stroke="none">
<path d="M1964 2610 c-12 -5 -77 -44 -146 -88 -155 -100 -171 -106 -309 -127
-129 -18 -281 -54 -357 -84 -288 -114 -477 -309 -606 -627 -23 -56 -43 -91
-52 -91 -15 0 -14 9 3 84 4 18 -3 25 -41 42 -25 11 -80 53 -123 93 -75 71 -77
72 -84 48 -13 -45 -9 -165 6 -223 17 -67 59 -149 116 -229 29 -41 47 -83 65
-150 13 -51 49 -142 78 -203 46 -93 66 -122 133 -188 125 -126 277 -202 428
-214 59 -5 74 -2 93 14 l24 19 -107 133 c-58 74 -104 141 -103 150 8 39 128 6
202 -55 33 -29 46 -24 22 8 -98 137 -150 233 -187 348 -20 64 -24 95 -24 210
0 127 2 141 34 235 44 131 79 197 160 297 116 144 294 255 426 265 75 7 137
-12 214 -62 29 -19 55 -35 57 -35 3 0 -16 30 -41 66 -25 37 -45 73 -45 81 0
31 43 94 124 183 100 110 107 127 40 100z"/>
</g>
</svg>
